<?xml version="1.0" standalone="no"?>
<!DOCTYPE svg PUBLIC "-//W3C//DTD SVG 20010904//EN"
 "http://www.w3.org/TR/2001/REC-SVG-20010904/DTD/svg10.dtd">
<svg version="1.0" xmlns="http://www.w3.org/2000/svg"
 width="902.000000pt" height="902.000000pt" viewBox="0 0 902.000000 902.000000"
 preserveAspectRatio="xMidYMid meet">
<metadata>
Created by potrace 1.11, written by Peter Selinger 2001-2013
</metadata>
<g transform="translate(0.000000,902.000000) scale(0.100000,-0.100000)"
fill="#000000" stroke="none">
<path d="M4377 8964 c-1 -1 -56 -5 -122 -8 -66 -4 -133 -8 -150 -10 -16 -2
-59 -7 -95 -11 -36 -3 -76 -8 -90 -10 -14 -2 -54 -9 -90 -14 -36 -6 -83 -13
-105 -17 -32 -5 -135 -27 -275 -59 -58 -13 -90 -22 -206 -56 -420 -125 -814
-309 -1179 -552 -107 -71 -274 -193 -337 -246 -350 -292 -604 -563 -845 -901
-56 -80 -201 -307 -216 -340 -4 -8 -17 -31 -29 -50 -61 -101 -268 -542 -268
-572 0 -6 -7 -24 -15 -41 -31 -68 -132 -394 -123 -402 2 -2 139 -5 303 -5 278
-1 300 -2 326 -21 16 -11 89 -127 185 -294 88 -151 162 -275 166 -275 19 0 65
113 99 245 179 702 572 1319 1124 1766 245 198 549 378 834 493 126 51 376
134 431 142 19 3 38 8 42 10 8 5 181 41 238 49 25 3 72 10 105 15 191 30 676
33 823 6 9 -2 42 -7 72 -11 30 -4 64 -9 75 -11 167 -32 192 -38 295 -64 255
-65 579 -197 793 -324 43 -25 80 -46 83 -46 2 0 57 -36 121 -79 615 -415 1063
-1002 1298 -1701 37 -109 93 -324 110 -415 97 -544 73 -1048 -72 -1550 -253
-873 -877 -1623 -1690 -2029 -208 -104 -422 -184 -636 -240 -73 -19 -149 -38
-168 -41 -19 -3 -41 -8 -49 -10 -19 -5 -63 -13 -115 -19 -22 -3 -73 -10 -113
-16 -196 -28 -584 -30 -757 -5 -16 2 -50 6 -75 9 -671 83 -1342 405 -1845 885
-296 284 -561 653 -719 1005 l-41 91 -279 0 c-303 0 -318 2 -349 54 -15 26
-17 73 -17 471 l0 443 -61 106 c-34 58 -73 126 -87 151 -14 25 -33 57 -43 72
-11 14 -19 29 -19 33 0 3 -20 39 -43 78 -24 40 -55 93 -69 118 -30 54 -340
592 -345 598 -6 8 -11 -5 -17 -44 -4 -22 -11 -65 -16 -95 -10 -59 -14 -88 -25
-190 -4 -36 -9 -78 -11 -95 -21 -171 -21 -621 2 -830 2 -22 6 -65 9 -95 3 -30
15 -108 26 -174 26 -162 29 -175 40 -226 6 -25 13 -56 15 -70 25 -130 125
-455 194 -630 194 -489 465 -933 799 -1310 78 -89 286 -299 381 -386 46 -42
99 -86 252 -209 34 -28 254 -181 317 -222 158 -100 405 -232 606 -323 161 -73
521 -197 685 -236 95 -22 344 -74 375 -78 22 -3 74 -10 115 -15 208 -29 330
-36 620 -36 231 1 369 7 460 20 14 2 50 7 80 10 54 6 155 21 195 29 11 2 40 7
65 11 199 32 522 123 765 215 286 109 634 288 880 453 65 44 314 228 337 249
7 7 38 33 68 58 118 97 310 284 446 435 410 456 737 1030 919 1616 68 218 132
489 150 639 4 30 8 57 10 60 2 3 6 34 9 70 4 36 9 76 11 90 20 120 28 660 12
825 -14 152 -25 247 -32 295 -20 128 -27 168 -45 254 -154 738 -485 1412 -974
1985 -113 133 -360 381 -491 492 -161 137 -369 291 -530 389 -91 56 -326 190
-333 190 -4 0 -40 18 -82 39 -222 115 -604 253 -890 320 -105 25 -164 37 -320
66 -8 1 -40 6 -70 10 -30 4 -63 9 -72 10 -9 2 -48 7 -85 10 -37 4 -76 9 -86
11 -45 8 -542 24 -550 18z m86 -309 c18 -8 22 -41 8 -63 -5 -9 -36 -16 -82
-18 -41 -3 -94 -6 -119 -8 l-45 -3 1 -39 c3 -88 -8 -80 104 -76 100 4 130 -3
130 -32 0 -34 -25 -46 -115 -51 -110 -8 -115 -9 -110 -34 7 -37 7 -146 0 -163
-9 -22 -36 -31 -69 -22 -29 7 -34 23 -41 154 -2 47 -7 131 -11 187 -3 57 -3
114 0 127 7 30 31 36 165 42 58 3 107 7 109 9 5 5 55 -1 75 -10z m604 -168
c93 -49 125 -165 74 -271 -31 -64 -78 -90 -155 -89 -134 2 -206 79 -193 204
10 87 55 145 137 172 26 8 108 -1 137 -16z m570 -127 c10 -14 10 -27 2 -47
l-10 -28 28 27 c40 38 76 45 102 19 24 -24 26 -40 8 -65 -14 -19 -40 -23 -75
-12 -37 12 -73 -36 -104 -142 -31 -100 -49 -117 -94 -87 -29 19 -29 25 16 170
17 55 33 111 36 124 3 13 9 32 15 43 13 24 61 24 76 -2z m-2719 -37 c10 -10
30 -47 42 -82 l23 -63 18 23 c10 13 19 27 19 31 0 10 85 48 109 48 35 0 77
-27 98 -62 30 -54 95 -226 91 -245 -4 -20 -48 -39 -70 -30 -8 3 -34 53 -58
112 -47 117 -70 142 -113 126 -30 -12 -57 -48 -56 -76 0 -11 17 -63 39 -115
33 -82 37 -98 26 -115 -7 -11 -27 -21 -43 -23 -26 -3 -31 2 -51 45 -50 111
-152 379 -152 400 0 21 23 42 46 43 7 0 21 -8 32 -17z m-462 -313 l26 -40 29
17 c23 14 30 14 43 4 22 -19 20 -32 -10 -56 l-26 -21 23 -40 c13 -22 38 -64
54 -92 31 -54 42 -60 76 -41 24 12 49 -3 49 -31 0 -24 -52 -67 -90 -75 -46
-10 -68 10 -135 124 -33 55 -64 101 -70 101 -5 0 -17 -4 -25 -10 -16 -10 -40
5 -40 26 0 7 7 20 17 29 15 16 15 20 -5 61 -22 44 -22 44 -2 64 31 31 57 25
86 -20z m4271 17 c8 -8 14 -22 15 -33 1 -16 -64 -126 -205 -347 -33 -51 -62
-66 -95 -48 -45 24 -38 44 83 239 64 103 124 192 132 199 17 14 51 9 70 -10z
m-4665 -369 c36 -28 208 -243 208 -259 0 -10 -10 -25 -22 -33 -20 -14 -24 -14
-45 -1 -13 9 -23 14 -24 13 0 -2 -2 -16 -4 -32 -5 -37 -32 -74 -75 -103 -62
-43 -111 -25 -187 64 -26 32 -60 71 -76 88 -37 40 -44 71 -22 95 10 11 26 20
36 20 11 0 51 -38 96 -90 42 -49 82 -90 87 -91 6 0 18 -2 27 -4 29 -5 69 42
69 83 0 10 -30 54 -66 98 -89 107 -91 111 -63 140 25 27 38 30 61 12z m5007
-47 c5 -9 5 -25 0 -36 -12 -31 -11 -34 16 -29 41 7 98 -23 127 -66 41 -64 29
-103 -62 -205 -109 -122 -105 -118 -134 -111 -31 8 -49 43 -32 67 6 9 34 42
61 74 28 32 58 67 68 78 39 45 4 107 -61 107 -30 0 -43 -9 -93 -62 -32 -35
-59 -66 -59 -70 0 -4 -11 -15 -25 -24 -45 -30 -98 12 -74 59 7 12 15 24 18 27
4 3 42 46 85 95 43 50 87 97 97 107 22 19 56 13 68 -11z m656 -471 c18 -11 38
-34 46 -52 12 -28 11 -32 -11 -50 -23 -18 -23 -18 -45 2 -25 24 -35 25 -59 7
-17 -13 -17 -15 -2 -45 29 -56 -4 -83 -48 -39 l-23 23 -109 -88 c-59 -48 -116
-88 -126 -88 -21 0 -52 44 -45 64 3 8 53 54 111 101 104 86 105 87 89 111 -12
19 -13 27 -3 39 16 19 29 19 52 -2 17 -15 20 -14 55 10 45 32 75 34 118 7z
m-6129 -42 c86 -38 138 -105 137 -178 -1 -54 -18 -91 -63 -138 -76 -80 -164
-81 -254 -2 -90 79 -95 180 -13 271 50 56 129 75 193 47z m-486 -543 c75 -129
76 -130 146 -169 87 -48 96 -61 78 -104 -18 -43 -45 -42 -131 7 -67 38 -71 39
-153 36 -47 -2 -112 -4 -145 -5 -69 -3 -92 4 -100 31 -6 18 9 58 26 69 5 3 60
5 124 5 77 -1 114 2 112 9 -3 6 -30 51 -61 100 -31 50 -56 97 -56 105 0 25 32
52 59 49 20 -2 39 -27 101 -133z m6821 34 c36 -26 78 -96 83 -139 14 -123
-124 -238 -250 -207 -65 16 -134 113 -136 190 -1 54 21 96 69 136 73 61 166
69 234 20z m319 -619 c14 -26 2 -50 -34 -66 l-31 -13 27 -1 c45 0 78 -21 87
-54 18 -69 -60 -91 -90 -26 -25 53 -55 56 -172 15 -54 -18 -104 -32 -111 -29
-17 6 -33 44 -29 65 5 20 18 27 183 87 74 27 140 47 147 45 8 -3 18 -13 23
-23z m181 -584 c7 -23 3 -30 -23 -46 -26 -16 -28 -19 -12 -24 65 -21 86 -161
30 -198 -7 -5 -1 -16 16 -30 39 -33 57 -73 53 -125 -5 -74 -44 -102 -165 -117
-25 -4 -70 -10 -100 -15 -75 -12 -100 -1 -100 45 0 37 19 45 130 59 115 13
150 31 150 73 0 16 -10 39 -22 51 -22 25 -29 25 -178 4 -84 -12 -94 -10 -108
21 -23 46 3 62 137 84 75 13 118 25 126 35 18 25 6 76 -22 94 -22 15 -35 15
-110 4 -46 -6 -97 -14 -112 -17 -33 -7 -61 16 -61 50 0 31 20 46 67 52 21 2
49 6 63 9 14 3 43 8 65 11 22 3 58 9 80 13 57 10 87 0 96 -33z m-125 -916 c29
-25 45 -71 48 -142 4 -77 20 -104 54 -94 39 13 43 85 7 136 -42 60 -5 112 49
69 49 -38 64 -156 31 -238 -25 -60 -55 -71 -176 -64 -52 3 -114 6 -139 6 -44
2 -45 2 -48 40 -3 32 0 38 22 47 31 11 31 11 6 52 -22 37 -27 112 -9 151 23
51 111 72 155 37z m-126 -715 c19 -3 60 -12 90 -20 70 -19 100 -19 100 0 0 8
8 19 18 24 23 12 42 -4 42 -36 0 -17 8 -24 39 -33 58 -15 68 -33 46 -84 -7
-16 -15 -18 -60 -12 -51 6 -53 5 -60 -21 -8 -35 -24 -45 -48 -31 -15 8 -18 17
-13 43 l7 33 -73 17 c-40 10 -92 20 -115 22 -38 4 -43 3 -43 -15 0 -11 -7 -25
-15 -32 -18 -15 -55 -4 -56 18 -5 82 35 146 85 136 11 -2 36 -6 56 -9z m-60
-520 c63 -24 123 -46 133 -50 10 -4 17 -18 17 -34 -1 -67 -27 -68 -201 -2
-150 56 -154 59 -157 89 -4 40 28 65 67 50 14 -5 78 -29 141 -53z m261 -98
c54 -42 -4 -120 -60 -80 -26 18 -27 47 -1 73 23 23 38 25 61 7z m-476 -307
c117 -53 160 -161 103 -262 -64 -115 -184 -136 -297 -51 -88 67 -85 199 6 285
54 52 116 61 188 28z m-6366 -147 c33 -25 49 -68 35 -91 -18 -28 -51 -26 -70
2 -19 30 -54 34 -70 9 -6 -10 -59 -75 -118 -145 -108 -130 -133 -147 -164
-116 -28 28 -13 62 66 143 42 44 83 88 90 97 13 16 11 16 -20 7 -140 -44 -229
-63 -246 -53 -22 14 -27 57 -9 73 13 10 161 45 302 72 28 5 66 13 85 17 50 12
88 7 119 -15z m5883 -384 c11 -6 32 -21 47 -34 14 -13 62 -53 106 -90 90 -75
109 -106 82 -132 -14 -14 -22 -15 -46 -6 -27 10 -29 9 -25 -10 12 -63 -65
-168 -119 -162 -12 1 -31 3 -43 4 -11 0 -29 9 -40 19 -10 9 -54 46 -97 82 -98
80 -104 91 -74 126 27 31 46 28 97 -17 129 -114 162 -128 200 -87 22 24 26 75
7 98 -7 8 -41 39 -77 69 -67 56 -90 80 -90 92 0 8 40 59 46 59 3 0 15 -5 26
-11z m-5561 -45 c71 -49 113 -146 84 -191 -27 -41 -75 -23 -75 28 0 44 -19 85
-47 100 -32 17 -57 13 -101 -16 l-33 -23 43 -14 c57 -19 102 -80 102 -141 1
-84 -90 -176 -185 -185 -86 -8 -168 63 -157 137 4 27 3 27 -25 17 -25 -10 -31
-8 -48 12 -24 31 -16 45 57 108 32 27 82 72 112 99 97 88 132 107 190 102 25
-3 59 -16 83 -33z m373 -556 c76 -39 126 -107 126 -170 0 -18 -9 -51 -19 -73
-51 -113 -173 -163 -261 -108 -100 62 -132 148 -91 239 47 103 161 155 245
112z m4232 -266 c6 -4 50 -72 99 -152 49 -80 93 -151 99 -157 9 -10 24 -5 67
21 58 35 86 38 105 11 24 -33 2 -55 -152 -150 -171 -105 -193 -114 -218 -90
-32 32 -14 62 63 105 22 13 41 27 41 32 0 4 -43 78 -95 163 -52 86 -95 163
-95 172 0 38 54 67 86 45z m-3691 -104 c6 -18 -16 -63 -143 -288 -83 -148 -86
-151 -122 -138 -52 18 -48 36 42 198 14 25 49 88 78 140 64 115 82 133 115
118 14 -6 27 -19 30 -30z m3247 -168 c89 -47 130 -179 84 -268 -32 -62 -132
-110 -203 -99 -75 13 -153 94 -127 134 5 8 58 35 118 59 60 24 111 45 113 48
9 9 -18 45 -39 52 -58 20 -105 3 -137 -49 -12 -19 -28 -38 -36 -41 -16 -6 -45
2 -46 13 0 3 -2 17 -5 30 -6 32 67 103 127 124 49 16 115 15 151 -3z m-2746
-45 c72 -30 114 -86 114 -151 0 -119 -83 -214 -188 -214 -54 0 -137 44 -163
86 -56 92 -20 227 76 281 45 25 97 25 161 -2z m2090 -166 c73 -45 104 -194 56
-271 -59 -95 -246 -117 -284 -33 -24 53 24 82 73 46 32 -24 57 -26 93 -10 32
15 46 53 41 107 -6 72 -43 113 -98 106 -34 -3 -53 -18 -70 -53 -25 -54 -94
-30 -80 28 21 90 177 137 269 80z m-1542 8 c18 -13 18 -18 2 -131 -9 -64 -15
-125 -11 -135 5 -18 44 -41 69 -41 7 0 25 9 39 20 25 20 36 55 52 164 10 71
17 86 41 92 63 16 72 -11 49 -150 -10 -61 -20 -124 -22 -141 -7 -45 -26 -79
-46 -83 -25 -5 -47 16 -47 45 l0 25 -36 -21 c-92 -54 -204 -1 -204 96 0 67 37
255 51 264 20 13 42 11 63 -4z m926 -67 c17 -17 20 -34 21 -102 0 -46 1 -150
2 -231 2 -133 0 -150 -16 -162 -20 -15 -51 -10 -68 11 -7 8 -12 48 -12 89 -1
41 -2 75 -4 75 -1 0 -17 -10 -36 -23 -41 -28 -106 -33 -147 -12 -49 25 -59 58
-62 203 -3 140 4 162 47 162 40 0 48 -24 51 -139 1 -60 7 -118 13 -129 14 -27
49 -36 83 -23 43 16 51 45 49 163 -2 100 0 107 21 122 29 20 34 20 58 -4z"/>
<path d="M4928 8413 c-24 -28 -34 -55 -37 -98 -5 -84 40 -131 107 -113 56 15
86 104 61 177 -6 17 -19 36 -29 41 -30 16 -85 12 -102 -7z"/>
<path d="M1482 7019 c-12 -5 -30 -22 -41 -40 -24 -39 -14 -74 32 -118 62 -62
135 -60 165 2 22 45 3 87 -60 135 -25 20 -71 30 -96 21z"/>
<path d="M7792 6515 c-78 -34 -106 -113 -56 -160 65 -60 214 21 197 107 -12
62 -69 84 -141 53z"/>
<path d="M8210 4371 c-34 -65 24 -150 88 -128 4 1 6 5 5 8 -1 3 -5 28 -9 55
-3 27 -10 57 -15 67 -13 23 -56 22 -69 -2z"/>
<path d="M7779 2748 c-24 -8 -39 -28 -53 -70 -7 -22 32 -78 69 -99 86 -50 169
-9 156 76 -8 56 -113 113 -172 93z"/>
<path d="M1635 2090 c-45 -19 -95 -79 -95 -114 0 -24 43 -66 74 -72 37 -6 103
36 121 78 13 33 5 78 -18 96 -19 15 -60 21 -82 12z"/>
<path d="M2140 1613 c-36 -25 -46 -35 -64 -70 -35 -68 -4 -133 63 -133 65 0
142 94 127 155 -15 58 -77 82 -126 48z"/>
<path d="M5946 949 c-38 -16 -72 -32 -75 -34 -10 -11 36 -46 65 -49 55 -6 101
35 100 88 -1 28 -14 27 -90 -5z"/>
<path d="M3168 1043 c-50 -32 -77 -129 -49 -182 17 -31 69 -42 105 -22 60 33
90 151 50 192 -28 27 -74 33 -106 12z"/>
<path d="M5217 7298 c-183 -39 -289 -224 -238 -416 31 -114 151 -208 278 -219
201 -16 358 133 352 334 -6 196 -197 343 -392 301z"/>
<path d="M4785 6849 c-167 -37 -325 -105 -480 -208 -104 -69 -171 -125 -140
-117 133 34 484 40 650 10 124 -21 318 -70 370 -93 11 -5 47 -19 80 -32 210
-79 474 -247 637 -405 l57 -56 -15 55 c-53 204 -194 455 -335 594 l-72 72 -30
-21 c-100 -71 -266 -84 -383 -29 -80 37 -161 117 -196 191 -30 64 -30 64 -143
39z"/>
<path d="M2688 6736 c-86 -23 -160 -84 -206 -171 -22 -42 -26 -63 -27 -135 0
-72 4 -94 26 -140 34 -70 89 -126 159 -158 73 -35 192 -37 262 -5 66 30 133
96 164 162 39 81 39 192 1 272 -32 67 -99 132 -165 161 -56 25 -148 31 -214
14z"/>
<path d="M3394 6538 c-33 -4 -96 -18 -140 -30 l-79 -23 -1 -50 c-5 -245 -193
-423 -430 -408 -55 3 -64 1 -74 -17 -15 -27 -67 -198 -74 -241 -21 -139 -26
-279 -14 -415 13 -155 18 -168 37 -102 19 66 132 286 196 383 221 336 543 606
910 762 69 30 229 83 248 83 9 0 19 5 22 10 4 6 3 9 -2 8 -4 -1 -30 3 -58 10
-149 37 -392 50 -541 30z"/>
<path d="M4310 6328 c-343 -44 -636 -162 -905 -366 -91 -69 -293 -277 -358
-368 -108 -153 -199 -331 -251 -489 -14 -44 -26 -82 -26 -86 0 -3 30 -5 67 -4
75 2 69 -4 109 105 26 72 130 284 153 312 6 7 38 51 72 98 79 109 249 277 370
363 169 121 418 231 609 271 151 30 233 40 360 40 436 0 838 -162 1165 -468
70 -65 70 -66 129 -66 53 0 61 -3 92 -34 31 -31 34 -39 35 -98 1 -34 0 -73 -1
-86 -1 -12 11 -44 26 -70 114 -194 188 -406 219 -632 13 -89 14 -397 2 -445
-2 -11 -10 -54 -17 -95 -45 -279 -209 -597 -429 -835 -230 -249 -608 -453
-929 -501 -20 -3 -48 -8 -62 -11 -49 -10 -356 -13 -415 -4 -33 6 -79 13 -102
16 -227 32 -510 156 -718 313 -54 41 -66 46 -120 48 -33 1 -68 2 -78 3 -10 0
-32 14 -48 30 -27 27 -29 35 -29 103 0 67 -3 77 -31 111 -29 35 -33 37 -49 22
-9 -8 -37 -18 -61 -21 -24 -3 -46 -8 -48 -9 -7 -8 100 -136 189 -226 259 -261
595 -439 950 -504 14 -3 36 -7 50 -10 98 -19 316 -25 450 -13 409 38 800 218
1095 505 254 247 444 587 511 918 44 215 50 454 18 660 -78 506 -368 954 -799
1238 -209 138 -470 239 -702 273 -26 3 -57 9 -68 11 -39 9 -361 10 -425 1z"/>
<path d="M6097 5793 c203 -242 371 -622 418 -943 4 -24 8 -47 10 -50 5 -8 17
-197 18 -275 0 -69 -17 -300 -23 -300 -1 0 -3 -15 -6 -34 -4 -32 -28 -144 -40
-186 -13 -43 149 145 219 256 84 132 133 240 168 374 17 64 17 71 3 80 -123
77 -182 143 -214 242 -39 115 -24 234 45 347 34 57 35 60 19 85 -9 14 -60 69
-113 121 -87 87 -177 155 -271 206 -19 10 -42 24 -50 30 -18 13 -165 78 -200
89 -22 7 -20 3 17 -42z"/>
<path d="M176 5572 c-23 -5 -23 -6 91 -201 52 -91 156 -272 231 -401 74 -129
152 -263 173 -297 22 -35 39 -65 39 -67 0 -3 48 -87 108 -188 l107 -183 2
-425 c1 -234 2 -437 2 -452 l1 -28 283 3 282 2 1 447 1 447 46 78 c24 43 55
96 67 118 79 142 626 1085 641 1107 11 16 15 29 9 33 -8 5 -439 9 -617 6 -30
-1 -36 -8 -148 -203 -65 -112 -141 -243 -170 -293 -29 -49 -66 -114 -83 -143
l-30 -54 -54 94 c-30 51 -117 201 -193 333 -76 132 -143 246 -149 253 -9 9
-88 13 -317 15 -168 1 -313 0 -323 -1z"/>
<path d="M3514 5564 c-59 -21 -119 -76 -149 -138 -89 -182 42 -391 244 -390
113 0 200 57 247 159 62 134 3 296 -131 360 -50 24 -155 28 -211 9z"/>
<path d="M4198 5572 l-88 -3 0 -84 c-1 -47 -1 -159 -1 -250 0 -91 0 -180 1
-199 l0 -33 280 0 c155 0 283 -3 287 -6 3 -4 6 -379 7 -834 l1 -828 277 -2
c194 -2 279 1 284 8 4 6 6 377 6 823 0 447 3 819 8 826 7 11 61 13 277 12 147
0 275 1 283 4 13 3 15 41 15 278 0 151 -3 278 -7 281 -7 7 -1452 13 -1630 7z"/>
<path d="M6965 5402 c-75 -13 -168 -76 -210 -142 -133 -210 10 -487 257 -496
105 -4 182 27 253 103 56 60 78 117 81 208 2 70 -1 88 -26 140 -66 141 -204
213 -355 187z"/>
<path d="M2467 4857 c-30 -34 -98 -116 -153 -182 -54 -66 -101 -122 -104 -125
-3 -3 -53 -61 -110 -130 -57 -69 -107 -127 -110 -130 -3 -3 -39 -45 -80 -95
-41 -49 -83 -99 -93 -110 -10 -11 -36 -43 -58 -71 l-39 -51 2 -189 3 -189 393
-3 c364 -2 392 -3 393 -20 0 -9 1 -64 2 -122 l2 -105 190 -2 c136 -1 192 2
198 10 4 7 7 37 6 67 0 30 0 81 0 112 l1 57 93 3 92 3 3 193 c1 105 -1 193 -5
193 -5 1 -45 2 -90 3 -45 1 -84 4 -88 7 -3 4 -7 215 -8 470 l-2 464 -192 2
-193 1 -53 -61z m44 -721 c0 -80 -2 -149 -4 -153 -7 -11 -252 -10 -251 1 2 10
248 305 252 301 2 -1 3 -68 3 -149z"/>
<path d="M3333 4911 c-5 -3 -9 -338 -8 -791 l0 -785 280 -2 c154 -1 282 2 285
7 4 7 5 1528 1 1566 -1 12 -541 17 -558 5z"/>
<path d="M6390 3757 c-152 -374 -427 -706 -774 -932 -86 -56 -259 -148 -326
-173 -101 -38 -199 -71 -229 -77 -39 -8 -28 -20 30 -30 19 -3 52 -10 74 -15
58 -13 167 -23 270 -25 81 -1 257 16 295 29 8 2 41 12 72 20 56 16 57 17 51
49 -7 46 13 143 43 204 68 141 228 232 384 220 l68 -5 27 71 c28 76 52 171 61
240 3 23 7 53 10 67 6 33 5 265 -1 310 -2 19 -7 55 -10 80 -4 24 -7 46 -9 47
-1 1 -17 -34 -36 -80z"/>
<path d="M3070 3093 c0 -28 68 -204 119 -308 76 -155 160 -269 273 -373 l25
-23 71 37 c176 89 383 40 504 -121 21 -27 40 -62 44 -78 8 -38 23 -42 104 -28
195 32 437 146 620 290 l55 44 -45 -8 c-25 -4 -52 -9 -62 -10 -82 -16 -342
-22 -438 -11 -495 58 -891 237 -1222 553 -27 25 -48 41 -48 36z"/>
<path d="M6191 2944 c-109 -22 -190 -86 -235 -183 -30 -65 -29 -197 1 -263 75
-164 267 -237 428 -164 74 33 120 79 157 153 28 57 32 76 32 142 0 62 -6 87
-28 134 -67 139 -207 211 -355 181z"/>
<path d="M3680 2390 c-254 -49 -352 -368 -168 -547 71 -68 148 -98 242 -94
195 8 343 200 301 391 -36 164 -211 281 -375 250z"/>
</g>
</svg>
